<svg height="31.225" viewBox="0 0 16.055 31.225" width="16.055" xmlns="http://www.w3.org/2000/svg"><path d="m19.149 25.4a2.956 2.956 0 0 0 -.755-2.134 6.607 6.607 0 0 0 -2.528-1.478 31.323 31.323 0 0 1 -3.087-1.33 10.394 10.394 0 0 1 -2.233-1.527 6.39 6.39 0 0 1 -1.446-2.031 6.9 6.9 0 0 1 -.509-2.774 6.157 6.157 0 0 1 1.773-4.548 7.482 7.482 0 0 1 4.714-2.068v-2.2a1.313 1.313 0 0 1 1.313-1.31 1.313 1.313 0 0 1 1.309 1.31v2.249a6.842 6.842 0 0 1 4.548 2.43 7.119 7.119 0 0 1 1.466 3.237 1.726 1.726 0 0 1 -1.8 1.967h-.789a2.578 2.578 0 0 1 -2.254-1.95 3.034 3.034 0 0 0 -.544-.989 2.652 2.652 0 0 0 -2.167-.985 2.75 2.75 0 0 0 -2.085.772 2.877 2.877 0 0 0 -.739 2.1 2.777 2.777 0 0 0 .722 2 7.962 7.962 0 0 0 2.676 1.543 28.439 28.439 0 0 1 3.234 1.494 9 9 0 0 1 2.132 1.58 5.989 5.989 0 0 1 1.33 2 6.821 6.821 0 0 1 .46 2.61 6.129 6.129 0 0 1 -1.74 4.531 7.632 7.632 0 0 1 -4.794 2.052v1.962a1.305 1.305 0 0 1 -1.305 1.305 1.305 1.305 0 0 1 -1.305-1.305v-1.942a7.949 7.949 0 0 1 -5.221-2.38 7 7 0 0 1 -1.66-3.434 1.723 1.723 0 0 1 1.8-1.967h.789a2.637 2.637 0 0 1 2.28 1.945 3.34 3.34 0 0 0 .617 1.06 3.424 3.424 0 0 0 2.676 1.034 3.281 3.281 0 0 0 2.282-.755 2.677 2.677 0 0 0 .84-2.074z" fill="#adadb1" transform="translate(-7.839 -3.997)"/></svg>