<svg height="32" viewBox="0 0 32 32" width="32" xmlns="http://www.w3.org/2000/svg"><path d="m15.444 11.6h10.667a1.7 1.7 0 0 0 1.778-1.6 1.7 1.7 0 0 0 -1.778-1.6h-10.667a1.7 1.7 0 0 0 -1.777 1.6 1.7 1.7 0 0 0 1.777 1.6zm-3.555 6.4h14.222a1.7 1.7 0 0 0 1.778-1.6 1.7 1.7 0 0 0 -1.778-1.6h-14.222a1.7 1.7 0 0 0 -1.778 1.6 1.7 1.7 0 0 0 1.778 1.6zm0 6.4h14.222a1.609 1.609 0 1 0 0-3.2h-14.222a1.609 1.609 0 1 0 0 3.2zm21.333-22.4h-28.444a1.7 1.7 0 0 0 -1.778 1.6v28.8a1.592 1.592 0 0 0 .983 1.431 1.943 1.943 0 0 0 1.862-.151l3.68-2.48 3.662 2.48a1.938 1.938 0 0 0 2.133 0l3.68-2.48 3.68 2.48a1.938 1.938 0 0 0 2.133 0l3.662-2.48 3.68 2.48a1.943 1.943 0 0 0 1.867.144 1.592 1.592 0 0 0 .978-1.424v-28.8a1.7 1.7 0 0 0 -1.778-1.6zm-1.778 27.2-1.9-1.28a1.938 1.938 0 0 0 -2.133 0l-3.664 2.48-3.68-2.48a1.938 1.938 0 0 0 -2.133 0l-3.68 2.48-3.662-2.48a1.938 1.938 0 0 0 -2.133 0l-1.9 1.28v-24h24.885z" fill="#adadb1" transform="translate(-3 -2)"/></svg>