<svg height="32.337" viewBox="0 0 32.343 32.337" width="32.343" xmlns="http://www.w3.org/2000/svg"><path d="m30.366 12.925h-1.547a1.288 1.288 0 0 1 -1.068-.828 11.571 11.571 0 0 0 -.518-1.232 1.259 1.259 0 0 1 .167-1.333l1.1-1.105a1.983 1.983 0 0 0 0-2.8l-1.785-1.786a1.974 1.974 0 0 0 -1.4-.581 1.948 1.948 0 0 0 -1.4.581l-1.1 1.105a1.136 1.136 0 0 1 -.79.284 1.183 1.183 0 0 1 -.543-.12 12.381 12.381 0 0 0 -1.232-.518 1.28 1.28 0 0 1 -.828-1.068v-1.547a1.986 1.986 0 0 0 -1.987-1.977h-2.527a1.98 1.98 0 0 0 -1.977 1.977v1.548a1.28 1.28 0 0 1 -.831 1.068 12.337 12.337 0 0 0 -1.232.512 1.27 1.27 0 0 1 -.543.12 1.136 1.136 0 0 1 -.79-.284l-1.1-1.1a1.983 1.983 0 0 0 -2.8 0l-1.794 1.794a1.975 1.975 0 0 0 0 2.8l1.105 1.104a1.272 1.272 0 0 1 .171 1.333 13.045 13.045 0 0 0 -.517 1.228 1.28 1.28 0 0 1 -1.068.828h-1.548a1.978 1.978 0 0 0 -1.984 1.98v2.527a1.98 1.98 0 0 0 1.977 1.977h1.548a1.28 1.28 0 0 1 1.068.828 11.572 11.572 0 0 0 .518 1.232 1.259 1.259 0 0 1 -.171 1.328l-1.106 1.11a1.983 1.983 0 0 0 0 2.8l1.795 1.79a1.983 1.983 0 0 0 2.8 0l1.11-1.1a1.136 1.136 0 0 1 .79-.284 1.183 1.183 0 0 1 .543.12 11.006 11.006 0 0 0 1.232.512 1.28 1.28 0 0 1 .828 1.068v1.544a1.98 1.98 0 0 0 1.977 1.977h2.527a1.986 1.986 0 0 0 1.984-1.977v-1.548a1.28 1.28 0 0 1 .828-1.068 12.337 12.337 0 0 0 1.232-.512 1.249 1.249 0 0 1 .543-.12 1.136 1.136 0 0 1 .79.284l1.1 1.105a1.983 1.983 0 0 0 2.8 0l1.787-1.792a1.983 1.983 0 0 0 0-2.8l-1.1-1.1a1.259 1.259 0 0 1 -.164-1.333 11 11 0 0 0 .512-1.232 1.28 1.28 0 0 1 1.068-.828h1.548a1.98 1.98 0 0 0 1.977-1.977v-2.531a1.986 1.986 0 0 0 -1.975-1.983zm-14.194 9.052a5.805 5.805 0 1 1 5.805-5.805 5.81 5.81 0 0 1 -5.805 5.805z" fill="#adadb1"/></svg>